<svg xmlns="http://www.w3.org/2000/svg" viewBox="0 0 280 200">
    <path fill="#CC3300" d="M89.802,20l-69.8,111.703V57.755L43.594,20H89.802z M113.043,180l99.979-160h-46.209L66.835,180H113.043z&#10;&#9; M236.263,180l23.739-37.99V68.063L190.056,180H236.263z"/>
    <path d="M43.594,20L20.002,57.755V35c0-0.74,0.072-1.462,0.175-2.174l6.392-10.229C28.973,20.959,31.875,20,35.002,20H43.594z&#10;&#9; M89.802,20l-69.8,111.703v24.65L105.205,20H89.802z M35.002,180h1.027l99.979-160h-15.403L23.79,174.939&#10;&#9;C26.538,178.037,30.536,180,35.002,180z M66.835,180l99.979-160h-15.402L51.433,180H66.835z M128.446,180l99.979-160h-15.402&#10;&#9;l-99.979,160H128.446z M159.252,180l96.876-155.035C253.383,21.923,249.422,20,245.002,20h-1.174l-99.98,160H159.252z M190.056,180&#10;&#9;l69.946-111.938V43.415L174.654,180H190.056z M245.002,180c3.024,0,5.835-0.903,8.19-2.442l6.682-10.692&#10;&#9;c0.076-0.612,0.128-1.232,0.128-1.865v-22.99L236.263,180H245.002z"/>
    <path fill="#3399FF" d="M26.57,22.596l-6.392,10.229C20.796,28.581,23.176,24.908,26.57,22.596z M120.606,20h-15.401L20.002,156.353&#10;&#9;V165c0,3.818,1.438,7.292,3.787,9.939L120.606,20z M51.433,180l99.979-160h-15.402L36.03,180H51.433z M143.848,180l99.98-160&#10;&#9;h-15.403l-99.979,160H143.848z M174.654,180l85.349-136.585V35c0-3.864-1.474-7.375-3.874-10.035L159.252,180H174.654z&#10;&#9; M259.875,166.865l-6.682,10.692C256.797,175.201,259.318,171.341,259.875,166.865z"/>
    <path fill="#FFFFFF" d="M68.049,49.436c-9.309,0-16.793,3.884-22.452,11.648c-7.063,9.682-10.595,22.708-10.595,39.079&#10;&#9;c0,17.214,3.742,30.379,11.226,39.5c5.986,7.249,13.447,10.876,22.38,10.876c9.261,0,17.166-4.316,23.715-12.945&#10;&#9;c6.548-8.629,9.822-21.2,9.822-37.711c0-17.773-3.766-31.034-11.295-39.781C84.769,52.992,77.169,49.436,68.049,49.436z&#10;&#9; M82.642,137.277c-3.275,5.613-7.953,8.419-14.033,8.419c-6.033,0-10.839-3.039-14.418-9.121&#10;&#9;c-3.577-6.079-5.366-18.217-5.366-36.413c0-18.615,1.729-30.881,5.191-36.8c3.462-5.916,8.28-8.874,14.453-8.874&#10;&#9;c6.034,0,10.875,3.11,14.524,9.331c3.648,6.221,5.472,18.499,5.472,36.833C88.465,118.381,86.523,130.589,82.642,137.277z&#10;&#9; M164.909,104.863c4.771,4.818,7.158,10.781,7.158,17.891c0,8.044-2.856,14.5-8.56,19.363c-6.502,5.614-14.97,8.421-25.4,8.421&#10;&#9;c-6.267,0-11.659-1.03-16.171-3.087c-4.514-2.06-7.896-4.842-10.139-8.35c-2.245-3.508-3.368-7.461-3.368-11.859&#10;&#9;c0-3.552,0.866-6.359,2.596-8.418c1.731-2.058,3.905-3.086,6.527-3.086c2.385,0,4.302,0.782,5.753,2.349&#10;&#9;c1.449,1.568,2.172,3.708,2.172,6.419c0,1.731-0.374,3.193-1.122,4.385c-0.748,1.195-2.058,2.305-3.928,3.334&#10;&#9;c-2.012,1.076-3.018,2.104-3.018,3.086c0,1.403,0.713,2.982,2.14,4.736c1.426,1.753,3.531,3.156,6.315,4.21&#10;&#9;c2.781,1.052,6.301,1.579,10.558,1.579c7.342,0,12.781-1.813,16.313-5.439c3.531-3.624,5.297-9.436,5.297-17.434&#10;&#9;c0-8.372-1.51-14.324-4.526-17.855c-3.016-3.532-7.496-5.299-13.435-5.299c-1.59,0-3.579,0.188-5.964,0.562&#10;&#9;c-1.918,0.28-3.296,0.421-4.139,0.421c-1.402,0-2.489-0.292-3.263-0.876c-0.771-0.584-1.156-1.321-1.156-2.211&#10;&#9;c0-0.981,0.362-1.742,1.087-2.28c0.725-0.537,1.905-0.806,3.543-0.806l3.859,0.14l3.366,0.141c5.94,0,10.408-1.518,13.401-4.553&#10;&#9;c2.994-3.034,4.49-7.728,4.49-14.078c0-7.797-1.428-13.342-4.28-16.634c-2.853-3.291-7.11-4.937-12.77-4.937&#10;&#9;c-5.191,0-9.33,0.933-12.417,2.798s-4.63,3.592-4.63,5.177c0,1.027,0.887,2.403,2.665,4.128c2.526,2.333,3.79,4.76,3.79,7.278&#10;&#9;c0,1.914-0.702,3.521-2.104,4.828c-1.404,1.307-3.205,1.959-5.404,1.959c-2.339,0-4.243-0.888-5.717-2.666&#10;&#9;c-1.474-1.777-2.21-4.256-2.21-7.438c0-4.957,1.776-9.354,5.333-13.189c5.05-5.426,12.277-8.14,21.678-8.14&#10;&#9;c8.795,0,15.81,2.363,21.048,7.087c5.239,4.724,7.858,10.572,7.858,17.54c0,5.006-1.415,9.332-4.243,12.98&#10;&#9;c-2.832,3.648-7.708,6.876-14.63,9.682C155.951,98.363,161.167,101.075,164.909,104.863z M240.021,104.126&#10;&#9;c-3.321-4.373-8.723-7.91-16.207-10.61c11.086-5.849,16.628-13.173,16.628-21.97c0-3.79-1.133-7.416-3.402-10.879&#10;&#9;s-5.566-6.2-9.893-8.213c-4.326-2.012-9.414-3.019-15.261-3.019c-8.513,0-15.539,2.586-21.083,7.754&#10;&#9;c-5.544,5.168-8.312,11.331-8.312,18.487c0,11.039,6.149,19.204,18.451,24.496c-8.326,2.853-14.185,6.327-17.575,10.417&#10;&#9;c-3.393,4.092-5.086,8.874-5.086,14.344c0,7.296,2.946,13.386,8.839,18.273c5.894,4.888,13.916,7.332,24.064,7.332&#10;&#9;c11.508,0,20.37-3.627,26.591-10.876c4.817-5.613,7.227-12.184,7.227-19.714C245.002,113.773,243.341,108.5,240.021,104.126z&#10;&#9; M196.411,81.666c-2.968-2.808-4.448-6.577-4.448-11.307c0-4.775,1.706-8.649,5.121-11.622c3.413-2.974,8.184-4.46,14.313-4.46&#10;&#9;c6.314,0,11.132,1.592,14.453,4.773c3.319,3.184,4.98,7.7,4.98,13.549c0,4.445-0.841,8.037-2.525,10.775&#10;&#9;c-1.684,2.738-4.98,5.511-9.893,8.319C206.709,87.818,199.376,84.475,196.411,81.666z M229.356,139.977&#10;&#9;c-4.302,3.674-10.336,5.508-18.101,5.508c-7.344,0-12.969-1.834-16.872-5.507c-3.907-3.67-5.858-8.825-5.858-15.467&#10;&#9;c0-5.097,1.285-9.398,3.857-12.906c2.571-3.506,7.18-6.663,13.822-9.47c12.302,4.438,20.312,8.06,24.03,10.867&#10;&#9;c3.717,2.806,5.576,6.946,5.576,12.418C235.811,131.454,233.659,136.306,229.356,139.977z"/>
</svg>